# xmcd CD database file
#
# Track frame offsets:
#	150
#	23867
#	43496
#	64195
#	87113
#	108969
#	123816
#	142237
#	158596
#	183266
#	201209
#	220417
#	241313
#	261083
#	284151
#
# Disc length: 4065 seconds
#
# Revision: 1
# Processed by: cddbd v1.5.2PL0 Copyright (c) Steve Scherf et al.
# Submitted via: CDex 1.77
#
DISCID=e20fdf0f
DTITLE=Varios - 30 Salsa Colombianas Pegaditas Disc 2 m2k 95268
DYEAR=2004
DGENRE=Salsa
TTITLE0=Gotas De Lluvia-Grupo Niche
TTITLE1=La Noche-Joe Arroyo
TTITLE2=La Comay-La Sonora Carruseles
TTITLE3=CaliPachanguero-Grupo Niche
TTITLE4=Sin Sentimiento-Grupo Niche
TTITLE5=El Caminante-Fruko Y Sus Tesos
TTITLE6=Sobredosis-Latin Sounds Orchestra
TTITLE7=Las Calenas Son Como Las Flores-Latin Sounds Orchestra
TTITLE8=Cuerpo De Guitarra-Latin Sounds Orchestra
TTITLE9=Una Palomita-Latin Sounds Orchestra
TTITLE10=A La Memoria Del Muerto-Latin Sounds Orchestra
TTITLE11=Si Supieras-Latin Sounds Orchestra
TTITLE12=Torero-Digi Underground
TTITLE13=Juanita Ae-LatinSounds Orchestra
TTITLE14=Que Nunca Me Falte Tu Amor-Latin Sounds Orchestra
EXTD=YEAR: 2004
EXTT0=
EXTT1=
EXTT2=
EXTT3=
EXTT4=
EXTT5=
EXTT6=
EXTT7=
EXTT8=
EXTT9=
EXTT10=
EXTT11=
EXTT12=
EXTT13=
EXTT14=
PLAYORDER=
